<svg version="1.1" xmlns="http://www.w3.org/2000/svg" xmlns:xlink="http://www.w3.org/1999/xlink" width="20" height="20" viewBox="0,0,20,20"><g transform="translate(-310,-170)"><g data-paper-data="{&quot;isPaintingLayer&quot;:true}" fill="#5cca3c" fill-rule="nonzero" stroke-opacity="0.42745" stroke="#000000" stroke-width="0" stroke-linecap="butt" stroke-linejoin="miter" stroke-miterlimit="10" stroke-dasharray="" stroke-dashoffset="0" style="mix-blend-mode: normal"><path d="M330,175v10c0,2.76143 -2.23858,5 -5,5h-10c-2.76142,0 -5,-2.23857 -5,-5v-10c0,-2.76143 2.23858,-5 5,-5h10c2.76142,0 5,2.23857 5,5zM328,175c0,-1.65686 -1.34314,-3 -3,-3h-10c-1.65686,0 -3,1.34314 -3,3v10c0,1.65686 1.34314,3 3,3h10c1.65686,0 3,-1.34314 3,-3z"/></g></g></svg>