<svg version="1.1" xmlns="http://www.w3.org/2000/svg" xmlns:xlink="http://www.w3.org/1999/xlink" width="20.5" height="20.5" viewBox="0,0,20.5,20.5"><g transform="translate(-301.75,-169.75)"><g data-paper-data="{&quot;isPaintingLayer&quot;:true}" fill-rule="nonzero" stroke-width="0.5" stroke-linecap="butt" stroke-linejoin="miter" stroke-miterlimit="10" stroke-dasharray="" stroke-dashoffset="0" style="mix-blend-mode: normal"><path d="M308.75098,170.8125c4.92969,-0.73632 12.38727,-0.25201 12.375,6.03812c-0.00609,3.1227 1.28821,6.73477 -0.40369,9.35942c-2.73122,4.23695 -13.8242,5.04931 -17.19263,1.625c-1.45277,-1.47687 -0.65207,-5.08799 -0.90369,-6.77254c-0.28067,-1.87913 -0.70107,-4.59637 0.64674,-6.16881c-0.01434,-0.10836 -0.02174,-0.21891 -0.02174,-0.33119c0,-0.71996 0.30434,-1.36884 0.79138,-1.82501c1.09351,-1.26716 3.07408,-1.68085 4.70862,-1.92499z" fill="#ffffff" stroke="none"/><path d="M322,175v10c0,2.76143 -2.23858,5 -5,5h-10c-2.76142,0 -5,-2.23857 -5,-5v-10c0,-2.76143 2.23858,-5 5,-5h10c2.76142,0 5,2.23857 5,5zM320,175c0,-1.65686 -1.34314,-3 -3,-3h-10c-1.65686,0 -3,1.34314 -3,3v10c0,1.65686 1.34314,3 3,3h10c1.65686,0 3,-1.34314 3,-3zM313,180c0,0.55229 -0.44772,1 -1,1c-0.55228,0 -1,-0.44771 -1,-1c0,-0.55229 0.44772,-1 1,-1c0.55228,0 1,0.44771 1,1z" fill="#ff0000" stroke-opacity="0.42745" stroke="#000000"/></g></g></svg>